<?xml version="1.0" standalone="no"?>
<!DOCTYPE svg PUBLIC "-//W3C//DTD SVG 20010904//EN"
 "http://www.w3.org/TR/2001/REC-SVG-20010904/DTD/svg10.dtd">
<svg version="1.0" xmlns="http://www.w3.org/2000/svg"
 width="822.000000pt" height="822.000000pt" viewBox="0 0 822.000000 822.000000"
 preserveAspectRatio="xMidYMid meet">
<metadata>
Created by potrace 1.14, written by Peter Selinger 2001-2017
</metadata>
<g transform="translate(0.000000,822.000000) scale(0.100000,-0.100000)"
fill="#000000" stroke="none">
<path d="M4218 7775 c-2 -1 -34 -5 -73 -9 -139 -12 -202 -23 -340 -55 -173
-41 -423 -132 -534 -194 -19 -10 -58 -31 -85 -45 -85 -43 -300 -187 -342 -227
-6 -5 -28 -23 -49 -40 -40 -31 -254 -241 -290 -285 -60 -74 -156 -202 -187
-250 -34 -53 -153 -260 -155 -270 -1 -3 -17 -39 -36 -80 -19 -41 -53 -131 -77
-200 -23 -69 -45 -132 -47 -140 -3 -8 -7 -22 -9 -30 -1 -8 -12 -58 -23 -110
-11 -52 -23 -113 -26 -135 -3 -22 -8 -51 -10 -65 -10 -60 -18 -194 -18 -310 0
-122 11 -318 18 -330 2 -3 6 -30 10 -60 3 -30 10 -71 15 -90 5 -19 11 -46 14
-60 12 -66 53 -207 95 -324 11 -33 19 -62 16 -64 -2 -3 5 -16 15 -30 11 -13
20 -32 20 -41 0 -10 4 -21 9 -26 6 -6 32 -53 60 -106 71 -138 152 -266 237
-375 41 -52 72 -99 69 -105 -4 -5 -1 -9 6 -9 10 0 209 -195 209 -205 0 -1 -17
1 -37 5 -39 9 -110 18 -151 19 -13 1 -20 5 -17 11 8 12 -8 13 -21 1 -5 -5 -72
-11 -149 -14 -245 -10 -438 -74 -639 -210 -67 -45 -203 -171 -211 -195 -3 -10
-31 -34 -63 -55 -161 -107 -263 -201 -392 -364 -6 -7 -10 -15 -10 -18 0 -3
-10 -22 -23 -43 -28 -45 -31 -105 -5 -110 10 -2 56 15 103 37 47 23 88 41 91
41 3 0 -24 -22 -59 -48 -156 -118 -285 -289 -312 -411 -4 -20 -2 -37 5 -46 24
-29 38 -24 260 100 150 84 332 183 495 270 131 69 156 82 195 100 37 16 31 12
-64 -49 -79 -50 -138 -89 -151 -98 -5 -4 -68 -49 -140 -100 -71 -51 -134 -96
-140 -100 -5 -5 -55 -42 -110 -84 -55 -41 -110 -83 -122 -92 -12 -9 -57 -44
-101 -77 -84 -63 -97 -81 -78 -107 31 -42 159 -46 346 -12 196 37 314 70 403
115 31 16 57 27 57 24 0 -3 -21 -37 -46 -77 -57 -88 -67 -138 -33 -162 13 -9
31 -16 39 -16 31 0 202 93 311 170 20 14 47 32 59 40 12 8 60 44 107 80 47 36
95 72 107 80 11 8 59 44 106 80 197 152 384 282 525 367 140 84 312 166 346
165 16 0 28 4 26 11 -4 18 163 97 263 123 112 30 125 33 167 38 18 3 37 8 43
11 7 5 10 0 9 -11 -2 -11 0 -25 4 -31 5 -8 4 -13 -2 -13 -10 0 -15 14 -12 33
1 5 -3 6 -8 2 -6 -3 -7 -13 -4 -23 5 -15 4 -15 -8 1 -15 19 -49 14 -49 -7 0
-8 -3 -8 -8 1 -4 7 -13 9 -21 4 -9 -6 -7 -10 8 -14 12 -3 28 1 35 9 12 11 15
11 20 -2 3 -8 2 -12 -3 -9 -5 3 -12 2 -15 -3 -3 -5 0 -9 7 -10 7 0 38 -3 70
-6 34 -3 57 -2 57 4 0 6 4 10 10 10 5 0 7 -6 4 -14 -5 -12 0 -13 23 -7 17 5
27 14 25 23 -2 16 35 55 44 45 3 -3 -4 -10 -15 -17 -12 -6 -21 -16 -21 -22 0
-6 10 -4 25 6 31 20 39 20 31 0 -4 -9 -1 -24 6 -33 7 -9 8 -13 4 -9 -5 4 -15
0 -23 -10 -12 -16 -13 -16 -7 2 6 16 5 17 -15 7 -12 -7 -26 -9 -31 -6 -5 3 -8
-4 -7 -15 1 -20 27 -29 27 -9 0 6 6 9 14 6 7 -3 24 0 38 7 13 7 32 12 42 10
14 -2 17 2 12 24 -5 21 -4 23 4 10 5 -9 18 -15 28 -13 9 2 20 4 23 4 4 1 9 10
12 21 6 23 -8 37 -17 18 -5 -11 -7 -11 -12 0 -3 6 -10 9 -15 6 -6 -3 -5 -11 2
-20 7 -8 7 -14 1 -14 -15 0 -22 28 -9 37 26 18 70 2 60 -22 -3 -8 0 -15 6 -15
6 0 11 5 11 11 0 5 5 7 10 4 6 -3 10 -1 10 4 0 6 -5 11 -12 11 -6 0 -8 3 -5 6
4 4 13 1 22 -6 8 -7 15 -8 15 -2 0 6 29 8 78 5 118 -8 297 -8 397 0 94 8 124
12 214 27 86 16 83 18 80 -57 -1 -38 -6 -86 -10 -108 -4 -22 -10 -57 -13 -78
-6 -40 -30 -145 -47 -211 -6 -22 -12 -46 -14 -55 -44 -230 -49 -300 -28 -400
24 -116 89 -224 186 -311 55 -49 87 -59 43 -14 -49 51 -95 169 -115 299 -14
88 -14 225 -1 225 7 0 10 -6 7 -12 -8 -24 77 -238 94 -238 5 0 9 -6 9 -13 0
-16 131 -182 203 -257 142 -148 286 -332 305 -390 7 -19 12 -62 13 -96 4 -176
-159 -308 -368 -299 -61 3 -163 36 -188 62 -49 49 -66 152 -35 213 34 66 120
91 174 49 26 -21 34 -53 16 -64 -19 -12 -10 -25 18 -25 44 1 73 30 79 81 4 38
1 50 -22 77 -52 62 -111 79 -212 60 -194 -36 -284 -270 -171 -444 18 -27 31
-52 30 -56 -4 -15 80 -86 132 -112 87 -44 228 -76 316 -71 101 5 144 14 220
48 41 18 113 69 145 101 17 17 44 42 61 56 60 50 149 192 174 277 7 23 19 43
27 45 8 2 59 91 114 198 54 107 99 189 99 183 0 -6 -9 -50 -20 -96 -37 -156
-31 -320 18 -507 24 -92 98 -250 116 -250 8 0 24 19 36 43 23 44 132 315 182
452 28 78 30 67 8 -40 -20 -98 -62 -280 -65 -285 -1 -3 -6 -26 -9 -53 -8 -61
2 -61 80 -1 162 125 313 309 389 474 9 19 33 78 52 130 20 52 48 113 63 135
75 111 148 287 174 420 4 17 9 41 11 55 25 125 37 370 38 770 0 305 -2 368
-17 410 -12 36 -12 36 15 32 37 -5 42 8 18 54 -49 92 -163 174 -368 263 l-115
50 2 98 c0 54 -3 116 -8 138 -5 22 -11 51 -14 65 -3 14 -12 54 -21 90 -9 36
-19 74 -21 85 -3 11 -12 62 -20 113 -13 82 -13 96 1 121 8 16 24 56 36 88 12
32 30 69 39 83 21 30 48 94 54 127 3 13 19 53 36 88 39 81 61 200 60 330 -1
55 4 125 10 155 17 88 10 228 -22 403 -16 88 -30 163 -32 165 -2 1 0 20 5 40
17 67 19 199 4 212 -10 8 -16 7 -24 -7 -8 -15 -10 -15 -14 -3 -2 8 -12 41 -21
72 -9 32 -40 93 -69 135 -29 43 -74 123 -101 178 -53 107 -152 277 -194 335
-92 124 -189 238 -277 325 -188 188 -391 336 -620 453 -92 47 -267 122 -284
122 -6 0 -19 4 -29 9 -38 21 -264 83 -346 95 -21 4 -42 8 -46 11 -4 2 -40 7
-81 11 -41 3 -78 8 -82 11 -9 5 -403 13 -409 8z m-395 -4869 c-4 -5 1 -7 10
-3 10 4 17 2 17 -4 0 -6 -9 -9 -20 -6 -20 5 -46 -24 -33 -37 3 -3 1 -6 -6 -6
-9 0 -11 6 -6 18 4 9 7 25 7 34 0 10 6 16 18 15 10 -1 16 -5 13 -11z m-53 -6
c5 8 10 11 10 5 0 -5 -5 -17 -10 -25 -9 -13 -11 -13 -20 0 -5 8 -10 20 -10 25
0 6 5 3 10 -5 9 -13 11 -13 20 0z m166 -4 c22 -22 17 -32 -6 -11 -11 10 -20
13 -20 7 0 -7 -5 -12 -11 -12 -8 0 -8 5 1 15 15 18 18 19 36 1z m-198 -26 c7
-12 17 -18 22 -15 5 3 7 0 4 -8 -4 -12 -10 -10 -30 10 -25 25 -29 33 -16 33 4
0 13 -9 20 -20z m92 6 c0 -3 -4 -8 -10 -11 -5 -3 -10 -1 -10 4 0 6 5 11 10 11
6 0 10 -2 10 -4z m106 -39 c2 -25 2 -26 -14 -10 -13 13 -14 17 -3 21 11 4 11
6 0 14 -12 8 -12 9 0 6 8 -2 15 -16 17 -31z m-206 3 c0 -5 -5 -10 -11 -10 -5
0 -7 5 -4 10 3 6 8 10 11 10 2 0 4 -4 4 -10z m90 0 c0 -5 -5 -10 -11 -10 -5 0
-7 5 -4 10 3 6 8 10 11 10 2 0 4 -4 4 -10z"/>
<path d="M2494 3692 c-5 -4 -10 -19 -11 -34 -1 -24 1 -26 18 -15 18 11 18 13
2 26 -16 12 -16 13 -1 8 10 -3 20 -2 23 2 6 11 -19 21 -31 13z"/>
<path d="M2494 3625 c-4 -8 -9 -13 -13 -11 -3 2 -6 -14 -6 -36 -1 -32 1 -36
11 -24 6 9 13 14 15 11 3 -2 5 14 6 36 2 40 -3 50 -13 24z"/>
<path d="M3860 2841 l-24 -19 25 1 c16 1 25 8 25 19 0 10 0 18 -1 18 0 0 -11
-9 -25 -19z"/>
<path d="M3788 2794 c-4 -3 -17 -7 -30 -9 -12 -2 -36 -6 -53 -10 -16 -4 -38
-7 -47 -8 -9 -1 -15 -4 -12 -8 2 -4 -5 -9 -16 -12 -11 -3 -18 -1 -15 4 4 5 -7
6 -22 4 -15 -3 -38 -7 -50 -8 -12 -2 -26 -6 -29 -10 -11 -11 -26 -8 -19 3 8
13 -18 8 -27 -5 -13 -17 -9 -21 18 -20 14 1 30 8 35 16 6 10 9 10 9 1 0 -8 11
-11 30 -10 17 1 30 5 30 8 0 3 16 5 35 4 26 -2 35 2 35 15 0 9 3 12 8 6 4 -6
16 -10 27 -10 63 4 64 5 59 23 -5 14 -3 14 10 -2 14 -17 16 -17 16 -4 0 9 4
20 10 23 6 3 7 -1 4 -9 -3 -9 -2 -16 4 -16 12 0 23 26 15 34 -8 8 -18 8 -25 0z
m-78 -34 c0 -5 -5 -10 -11 -10 -5 0 -7 5 -4 10 3 6 8 10 11 10 2 0 4 -4 4 -10z"/>
<path d="M3227 2743 c-3 -5 -2 -15 2 -22 5 -7 11 -9 14 -4 3 5 2 15 -2 22 -5
7 -11 9 -14 4z"/>
<path d="M3253 2734 c1 -18 7 -22 33 -22 18 0 37 -3 42 -6 6 -3 8 2 5 14 -7
28 -17 32 -39 16 -16 -12 -20 -12 -31 3 -11 14 -12 14 -10 -5z"/>
<path d="M3342 2730 c6 -20 104 -25 111 -6 4 10 -6 13 -39 12 -24 0 -44 -5
-44 -10 0 -5 -7 -2 -17 5 -14 12 -16 12 -11 -1z"/>
</g>
</svg>
